# File created by Blade
# Date/Time:  Tue Jan 27 19:54:32 2015
#---------------------------------------------------------
:version 1.10
:name HOM
:units
  mass 1.0
  length 1.000000
  angle deg
:documentation
     Acclaim Skeleton File
:root
   axis xyz
   order TX TY TZ RX RY RZ
   position 0.000000 0.000000 0.000000
   orientation 0 0 0
:bonedata
   begin
      id 1
      name Spine_dum
      direction 0.000000 1.000000 0.000000
      length 6.116652
      axis 0.0 0.0 0.0 xyz
   end
   begin
      id 2
      name LeftUpLeg_dum
      direction 1.000000 0.000000 0.000000
      length 4.711765
      axis 0.0 0.0 0.0 xyz
   end
   begin
      id 3
      name RightUpLeg_dum
      direction -1.000000 0.000000 0.000000
      length 4.711765
      axis 0.0 0.0 0.0 xyz
   end
   begin
      id 4
      name Spine
      direction 0.000000 1.000000 0.000000
      length 0.000000
      axis 0.0 0.0 0.0 xyz
      dof rx ry rz
   end
   begin
      id 5
      name Spine_dum1
      direction 0.000000 1.000000 0.000000
      length 15.225563
      axis 0.0 0.0 0.0 xyz
   end
   begin
      id 6
      name Spine_dum2
      direction 0.000000 1.000000 0.000000
      length 8.977654
      axis 0.0 0.0 0.0 xyz
   end
   begin
      id 7
      name Spine_dum3
      direction 0.000000 1.000000 0.000000
      length 8.977654
      axis 0.0 0.0 0.0 xyz
   end
   begin
      id 8
      name Head
      direction 0.000000 1.000000 0.000000
      length 4.527550
      axis 0.0 0.0 0.0 xyz
      dof rx ry rz
   end
   begin
      id 9
      name LeftShoulder
      direction 1.000000 0.000000 0.000000
      length 7.110130
      axis 0.0 0.0 -90.0 xyz
      dof rx ry rz
   end
   begin
      id 10
      name LeftArm
      direction 1.000000 0.000000 0.000000
      length 10.398341
      axis 0.0 0.0 -90.0 xyz
      dof rx ry rz
   end
   begin
      id 11
      name LeftForeArm
      direction 1.000000 0.000000 0.000000
      length 8.888997
      axis 0.0 0.0 -90.0 xyz
      dof ry rz rx
   end
   begin
      id 12
      name LeftHand
      direction 0.000000 0.000000 0.000000
      length 0.000000
      axis 0.0 0.0 -90.0 xyz
      dof rx ry rz
   end
   begin
      id 13
      name LeftHand_dum1
      direction 0.000000 0.000000 0.000000
      length 0.000000
      axis 0.0 0.0 -90.0 xyz
   end
   begin
      id 14
      name LeftHand_dum2
      direction 1.000000 0.000000 0.000000
      length 3.937000
      axis 0.0 0.0 -90.0 xyz
   end
   begin
      id 15
      name LeftHandThumb1
      direction 0.000000 0.000000 1.000000
      length 3.937000
      axis 0.0 0.0 -90.0 xyz
      dof rx rz ry
   end
   begin
      id 16
      name RightShoulder
      direction -1.000000 0.000000 0.000000
      length 7.110130
      axis 0.0 0.0 90.0 xyz
      dof rx ry rz
   end
   begin
      id 17
      name RightArm
      direction -1.000000 0.000000 0.000000
      length 10.398341
      axis 0.0 0.0 90.0 xyz
      dof rx ry rz
   end
   begin
      id 18
      name RightForeArm
      direction -1.000000 0.000000 0.000000
      length 8.888997
      axis 0.0 0.0 90.0 xyz
      dof ry rz rx
   end
   begin
      id 19
      name RightHand
      direction 0.000000 0.000000 0.000000
      length 0.000000
      axis 0.0 0.0 90.0 xyz
      dof rx ry rz
   end
   begin
      id 20
      name RightHand_dum1
      direction 0.000000 0.000000 0.000000
      length 0.000000
      axis 0.0 0.0 90.0 xyz
   end
   begin
      id 21
      name RightHand_dum2
      direction -1.000000 0.000000 0.000000
      length 3.937000
      axis 0.0 0.0 90.0 xyz
   end
   begin
      id 22
      name RightHandThumb1
      direction 0.000000 0.000000 1.000000
      length 3.937000
      axis 0.0 0.0 90.0 xyz
      dof rx rz ry
   end
   begin
      id 23
      name LeftUpLeg
      direction 0.000000 -1.000000 0.000000
      length 15.510451
      axis 0.0 0.0 0.0 xyz
      dof rx ry rz
   end
   begin
      id 24
      name LeftLeg
      direction 0.000000 -1.000000 0.000000
      length 14.858061
      axis 0.0 0.0 0.0 xyz
      dof rx ry rz
   end
   begin
      id 25
      name LeftFoot
      direction 0.000000 -0.258819 0.965926
      length 5.128852
      axis 15.0 0.0 0.0 xyz
      dof rx ry rz
   end
   begin
      id 26
      name LeftToeBase
      direction 0.000000 0.000000 1.000000
      length 2.952750
      axis 0.0 0.0 0.0 xyz
      dof rx ry rz
   end
   begin
      id 27
      name RightUpLeg
      direction 0.000000 -1.000000 0.000000
      length 15.510451
      axis 0.0 0.0 0.0 xyz
      dof rx ry rz
   end
   begin
      id 28
      name RightLeg
      direction 0.000000 -1.000000 0.000000
      length 14.858061
      axis 0.0 0.0 0.0 xyz
      dof rx ry rz
   end
   begin
      id 29
      name RightFoot
      direction 0.000000 -0.258819 0.965926
      length 5.128852
      axis 15.0 0.0 0.0 xyz
      dof rx ry rz
   end
   begin
      id 30
      name RightToeBase
      direction 0.000000 0.000000 1.000000
      length 2.952750
      axis 0.0 0.0 0.0 xyz
      dof rx ry rz
   end
:hierarchy
   begin
      root Spine_dum LeftUpLeg_dum RightUpLeg_dum
      Spine_dum Spine
      LeftUpLeg_dum LeftUpLeg
      RightUpLeg_dum RightUpLeg
      Spine Spine_dum1 Spine_dum2 Spine_dum3
      Spine_dum1 Head
      Spine_dum2 LeftShoulder
      Spine_dum3 RightShoulder
      LeftShoulder LeftArm
      LeftArm LeftForeArm
      LeftForeArm LeftHand
      LeftHand LeftHand_dum1 LeftHand_dum2
      LeftHand_dum1 LeftHandThumb1
      RightShoulder RightArm
      RightArm RightForeArm
      RightForeArm RightHand
      RightHand RightHand_dum1 RightHand_dum2
      RightHand_dum1 RightHandThumb1
      LeftUpLeg LeftLeg
      LeftLeg LeftFoot
      LeftFoot LeftToeBase
      RightUpLeg RightLeg
      RightLeg RightFoot
      RightFoot RightToeBase
   end

# File created by Blade
# Date/Time:  Tue Jan 27 19:54:25 2015
# Frame Rate: 120.000 fps
#------------------------------------------------------
:FULLY-SPECIFIED
:DEGREES
1311
root 5.368578 33.138725 -0.345578 -12.671444 -6.305122 -15.076223
Spine 18.773439 9.331389 15.739668
Head 4.336712 -9.555552 0.733086
LeftShoulder -13.543829 -1.805027 28.930050
LeftArm -8.581826 35.189998 -89.993780
LeftForeArm 4.804531 -0.000000 90.355595
LeftHand 23.490695 0.000000 39.600667
LeftHandThumb1 -26.253704 0.000000 33.147579
RightShoulder -16.215471 -14.053439 -20.613562
RightArm 12.929199 -27.657602 82.230369
RightForeArm -17.634113 0.000000 23.937343
RightHand 16.489594 0.000000 9.276061
RightHandThumb1 -24.326973 -0.000000 -32.862282
LeftUpLeg 14.162711 5.063601 9.444858
LeftLeg 9.951265 -0.000000 -0.000000
LeftFoot -23.149930 13.792303 -17.997458
LeftToeBase 20.558638 -0.000000 -0.000000
RightUpLeg -73.840250 7.067596 22.652782
RightLeg 111.423578 -0.000000 -0.000000
RightFoot 25.356960 -25.379779 14.570230
RightToeBase 13.069455 -0.000000 -0.000000
1312
root 5.368261 33.140687 -0.360538 -12.639430 -6.346429 -15.094041
Spine 18.799928 9.357820 15.813517
Head 4.385120 -9.542859 0.642086
LeftShoulder -13.532016 -1.823439 28.886230
LeftArm -8.504965 35.174696 -89.863142
LeftForeArm 4.704656 0.000000 90.333705
LeftHand 23.520031 -0.000000 39.394289
LeftHandThumb1 -26.253704 0.000000 33.147579
RightShoulder -16.181787 -14.070976 -20.657076
RightArm 12.988343 -27.722921 82.186965
RightForeArm -17.586177 0.000000 23.969099
RightHand 16.461709 -0.000000 9.322722
RightHandThumb1 -24.326973 -0.000000 -32.862282
LeftUpLeg 14.102497 4.998175 9.434568
LeftLeg 9.974058 -0.000000 -0.000000
LeftFoot -23.157324 13.899093 -17.988584
LeftToeBase 20.486768 -0.000000 -0.000000
RightUpLeg -73.814755 7.094070 22.564045
RightLeg 111.081617 -0.000000 -0.000000
RightFoot 25.182922 -25.439705 14.426101
RightToeBase 13.086206 -0.000000 -0.000000
1313
root 5.369716 33.141643 -0.372019 -12.626891 -6.391520 -15.089380
Spine 18.835521 9.392876 15.867584
Head 4.445393 -9.525557 0.565905
LeftShoulder -13.515133 -1.820287 28.849779
LeftArm -8.427455 35.166392 -89.741804
LeftForeArm 4.562341 -0.000000 90.322596
LeftHand 23.523847 -0.000000 39.259725
LeftHandThumb1 -26.253704 0.000000 33.147579
RightShoulder -16.137547 -14.016363 -20.713189
RightArm 12.947764 -27.750616 82.195494
RightForeArm -17.711234 -0.000000 23.977837
RightHand 16.491328 0.000000 9.348026
RightHandThumb1 -24.326973 -0.000000 -32.862282
LeftUpLeg 14.077681 4.945849 9.406890
LeftLeg 9.977212 -0.000000 -0.000000
LeftFoot -23.160479 13.965526 -18.012372
LeftToeBase 20.500136 -0.000000 -0.000000
RightUpLeg -73.783405 7.128481 22.437650
RightLeg 110.739363 -0.000000 -0.000000
RightFoot 25.028876 -25.521699 14.245996
RightToeBase 12.727845 -0.000000 -0.000000
1314
root 5.369388 33.142082 -0.380954 -12.629835 -6.443906 -15.090092
Spine 18.873516 9.450612 15.920211
Head 4.522722 -9.534089 0.527255
LeftShoulder -13.507848 -1.798707 28.852978
LeftArm -8.330133 35.151811 -89.646189
LeftForeArm 4.432932 -0.000000 90.288777
LeftHand 23.484591 -0.000000 39.051654
LeftHandThumb1 -26.253704 0.000000 33.147579
RightShoulder -16.112321 -14.021077 -20.726809
RightArm 12.989111 -27.847343 82.137939
RightForeArm -17.667884 -0.000000 23.972625
RightHand 16.472875 -0.000000 9.351462
RightHandThumb1 -24.326973 -0.000000 -32.862282
LeftUpLeg 14.096520 4.950514 9.409953
LeftLeg 9.946540 -0.000000 -0.000000
LeftFoot -23.143073 13.976068 -18.006993
LeftToeBase 20.542765 -0.000000 -0.000000
RightUpLeg -73.751237 7.185947 22.290726
RightLeg 110.389495 -0.000000 -0.000000
RightFoot 24.810305 -25.712211 14.191101
RightToeBase 11.855022 -0.000000 -0.000000
1315
root 5.370343 33.142131 -0.389162 -12.635975 -6.516749 -15.087847
Spine 18.912946 9.525369 15.981801
Head 4.608065 -9.544478 0.488424
LeftShoulder -13.473230 -1.818514 28.856096
LeftArm -8.329871 35.119261 -89.594647
LeftForeArm 4.406483 -0.000000 90.262150
LeftHand 23.599537 -0.000000 39.039543
LeftHandThumb1 -26.253704 0.000000 33.147579
RightShoulder -16.087117 -13.995923 -20.745719
RightArm 13.009360 -27.888011 82.107446
RightForeArm -17.715048 0.000000 23.913288
RightHand 16.509761 0.000000 9.438448
RightHandThumb1 -24.326973 -0.000000 -32.862282
LeftUpLeg 14.148825 4.990414 9.416507
LeftLeg 9.868167 -0.000000 -0.000000
LeftFoot -23.111272 14.011243 -17.968097
LeftToeBase 20.433704 -0.000000 -0.000000
RightUpLeg -73.723670 7.263180 22.115706
RightLeg 110.012236 -0.000000 -0.000000
RightFoot 24.600318 -25.874489 14.243415
RightToeBase 12.502941 -0.000000 -0.000000
1316
root 5.371393 33.142764 -0.395773 -12.647139 -6.582555 -15.088212
Spine 18.955867 9.540105 16.042091
Head 4.673161 -9.482655 0.416769
LeftShoulder -13.517748 -1.807205 28.842130
LeftArm -8.305103 35.109074 -89.513523
LeftForeArm 4.310298 -0.000000 90.245424
LeftHand 23.510814 -0.000000 39.142423
LeftHandThumb1 -26.253704 0.000000 33.147579
RightShoulder -16.046604 -13.949391 -20.777714
RightArm 13.057155 -28.120638 82.014714
RightForeArm -17.509881 0.000000 23.866955
RightHand 16.451653 -0.000000 9.208981
RightHandThumb1 -24.326973 -0.000000 -32.862282
LeftUpLeg 14.198777 5.026431 9.420929
LeftLeg 9.805433 -0.000000 -0.000000
LeftFoot -23.075850 14.058302 -17.899533
LeftToeBase 20.358347 -0.000000 -0.000000
RightUpLeg -73.696785 7.352576 21.939880
RightLeg 109.632453 -0.000000 -0.000000
RightFoot 24.323097 -25.992425 14.256329
RightToeBase 13.364694 -0.000000 -0.000000
1317
root 5.375012 33.140860 -0.403416 -12.653861 -6.629951 -15.058752
Spine 18.971532 9.656351 16.062490
Head 4.770939 -9.542338 0.469129
LeftShoulder -13.460932 -1.840254 28.895906
LeftArm -8.312274 35.089747 -89.507786
LeftForeArm 4.243613 -0.000000 90.218784
LeftHand 23.372190 -0.000000 39.348702
LeftHandThumb1 -26.253704 0.000000 33.147579
RightShoulder -16.074454 -13.963180 -20.733618
RightArm 13.103434 -28.238455 81.920292
RightForeArm -17.468658 -0.000000 23.815223
RightHand 16.475766 -0.000000 9.135729
RightHandThumb1 -24.326973 -0.000000 -32.862282
LeftUpLeg 14.227531 5.021379 9.374543
LeftLeg 9.753942 -0.000000 -0.000000
LeftFoot -23.051366 14.127941 -17.864036
LeftToeBase 20.418286 -0.000000 -0.000000
RightUpLeg -73.712350 7.438043 21.714530
RightLeg 109.288543 -0.000000 -0.000000
RightFoot 24.074239 -26.099420 14.188654
RightToeBase 13.196790 -0.000000 -0.000000
